<svg xmlns="http://www.w3.org/2000/svg" enable-background="new 0 0 24 24" viewBox="0 0 24 24" id="twitch">
  <path fill="#673ab7" d="m.975 4.175v16.694h5.749v3.131h3.139l3.134-3.132h4.705l6.273-6.258v-14.61h-21.433zm3.658-2.09h17.253v11.479l-3.66 3.652h-5.751l-3.134 3.127v-3.127h-4.708z"></path>
  <path fill="#dedede" d="m12 2.085h-7.367v15.131h4.708v3.127l2.659-2.654z"></path>
  <path fill="#5a329f" d="m12 0h-9.458l-1.567 4.175v16.694h5.749v3.131h3.138l2.138-2.136v-4.175l-2.659 2.654v-3.127h-4.708v-15.131h7.367z"></path>
  <path fill="#673ab7" d="m12.475 6.262h-2.089v6.26h2.089z"></path>
  <path fill="#5a329f" d="m11.309 6.262h-.923v6.26h.923z"></path>
  <path fill="#673ab7" d="m18.224 6.262h-2.091v6.26h2.091z"></path>
  <path fill="#5a329f" d="m17.178 6.262h-1.045v6.26h1.045z"></path>
</svg>
